<?xml version="1.0" encoding="UTF-8" standalone="no"?><!DOCTYPE svg PUBLIC "-//W3C//DTD SVG 1.1//EN" "http://www.w3.org/Graphics/SVG/1.1/DTD/svg11.dtd"><!-- Generated by graphviz version 2.40.1 (20161225.0304)
 --><!-- Title: Tree Pages: 1 --><svg xmlns="http://www.w3.org/2000/svg" xmlns:xlink="http://www.w3.org/1999/xlink" width="2092pt" height="595pt" viewBox="0.00 0.00 2092.04 595.20">
<g id="graph0" class="graph" transform="scale(1 1) rotate(0) translate(4 591.2)">
<title>Tree</title>
<polygon fill="#ffffff" stroke="transparent" points="-4,4 -4,-591.2 2088.0356,-591.2 2088.0356,4 -4,4"/>
<!-- 0 -->
<g id="node1" class="node">
<title>0</title>
<polygon fill="#e58139" fill-opacity="0.007843" stroke="#000000" points="1107.8042,-587.2 974.7314,-587.2 974.7314,-495.2 1107.8042,-495.2 1107.8042,-587.2"/>
<text text-anchor="middle" x="1041.2678" y="-570.6" font-family="Times,serif" font-size="14.00" fill="#000000">agg &lt;= 1.5</text>
<text text-anchor="middle" x="1041.2678" y="-553.8" font-family="Times,serif" font-size="14.00" fill="#000000">gini = 0.5</text>
<text text-anchor="middle" x="1041.2678" y="-537" font-family="Times,serif" font-size="14.00" fill="#000000">samples = 7490</text>
<text text-anchor="middle" x="1041.2678" y="-520.2" font-family="Times,serif" font-size="14.00" fill="#000000">value = [3763, 3727]</text>
<text text-anchor="middle" x="1041.2678" y="-503.4" font-family="Times,serif" font-size="14.00" fill="#000000">class = Non-lethal</text>
</g>
<!-- 1 -->
<g id="node2" class="node">
<title>1</title>
<polygon fill="#399de5" fill-opacity="0.435294" stroke="#000000" points="860.8042,-459.2 727.7314,-459.2 727.7314,-367.2 860.8042,-367.2 860.8042,-459.2"/>
<text text-anchor="middle" x="794.2678" y="-442.6" font-family="Times,serif" font-size="14.00" fill="#000000">circ &lt;= 2.5</text>
<text text-anchor="middle" x="794.2678" y="-425.8" font-family="Times,serif" font-size="14.00" fill="#000000">gini = 0.461</text>
<text text-anchor="middle" x="794.2678" y="-409" font-family="Times,serif" font-size="14.00" fill="#000000">samples = 4300</text>
<text text-anchor="middle" x="794.2678" y="-392.2" font-family="Times,serif" font-size="14.00" fill="#000000">value = [1553, 2747]</text>
<text text-anchor="middle" x="794.2678" y="-375.4" font-family="Times,serif" font-size="14.00" fill="#000000">class = Lethal</text>
</g>
<!-- 0&#45;&gt;1 -->
<g id="edge1" class="edge">
<title>0-&gt;1</title>
<path fill="none" stroke="#000000" d="M974.426,-506.5614C942.3001,-489.9131 903.6437,-469.8806 870.3893,-452.6476"/>
<polygon fill="#000000" stroke="#000000" points="871.652,-449.3599 861.163,-447.8663 868.4312,-455.575 871.652,-449.3599"/>
<text text-anchor="middle" x="868.7247" y="-467.4953" font-family="Times,serif" font-size="14.00" fill="#000000">True</text>
</g>
<!-- 16 -->
<g id="node17" class="node">
<title>16</title>
<polygon fill="#e58139" fill-opacity="0.556863" stroke="#000000" points="1356.3042,-459.2 1230.2314,-459.2 1230.2314,-367.2 1356.3042,-367.2 1356.3042,-459.2"/>
<text text-anchor="middle" x="1293.2678" y="-442.6" font-family="Times,serif" font-size="14.00" fill="#000000">secu &lt;= 5.5</text>
<text text-anchor="middle" x="1293.2678" y="-425.8" font-family="Times,serif" font-size="14.00" fill="#000000">gini = 0.426</text>
<text text-anchor="middle" x="1293.2678" y="-409" font-family="Times,serif" font-size="14.00" fill="#000000">samples = 3190</text>
<text text-anchor="middle" x="1293.2678" y="-392.2" font-family="Times,serif" font-size="14.00" fill="#000000">value = [2210, 980]</text>
<text text-anchor="middle" x="1293.2678" y="-375.4" font-family="Times,serif" font-size="14.00" fill="#000000">class = Non-lethal</text>
</g>
<!-- 0&#45;&gt;16 -->
<g id="edge16" class="edge">
<title>0-&gt;16</title>
<path fill="none" stroke="#000000" d="M1107.8075,-507.4021C1142.4769,-489.7922 1184.9393,-468.224 1220.4813,-450.1709"/>
<polygon fill="#000000" stroke="#000000" points="1222.5025,-453.07 1229.8333,-445.4207 1219.3324,-446.8289 1222.5025,-453.07"/>
<text text-anchor="middle" x="1222.0778" y="-464.9874" font-family="Times,serif" font-size="14.00" fill="#000000">False</text>
</g>
<!-- 2 -->
<g id="node3" class="node">
<title>2</title>
<polygon fill="#399de5" fill-opacity="0.600000" stroke="#000000" points="468.3042,-331.2 342.2314,-331.2 342.2314,-239.2 468.3042,-239.2 468.3042,-331.2"/>
<text text-anchor="middle" x="405.2678" y="-314.6" font-family="Times,serif" font-size="14.00" fill="#000000">secu &lt;= 5.5</text>
<text text-anchor="middle" x="405.2678" y="-297.8" font-family="Times,serif" font-size="14.00" fill="#000000">gini = 0.408</text>
<text text-anchor="middle" x="405.2678" y="-281" font-family="Times,serif" font-size="14.00" fill="#000000">samples = 3308</text>
<text text-anchor="middle" x="405.2678" y="-264.2" font-family="Times,serif" font-size="14.00" fill="#000000">value = [945, 2363]</text>
<text text-anchor="middle" x="405.2678" y="-247.4" font-family="Times,serif" font-size="14.00" fill="#000000">class = Lethal</text>
</g>
<!-- 1&#45;&gt;2 -->
<g id="edge2" class="edge">
<title>1-&gt;2</title>
<path fill="none" stroke="#000000" d="M727.3963,-391.196C657.9976,-368.3605 549.7868,-332.7538 478.2189,-309.2045"/>
<polygon fill="#000000" stroke="#000000" points="478.9644,-305.7652 468.3714,-305.9642 476.7764,-312.4145 478.9644,-305.7652"/>
</g>
<!-- 9 -->
<g id="node10" class="node">
<title>9</title>
<polygon fill="#e58139" fill-opacity="0.368627" stroke="#000000" points="853.8043,-331.2 734.7313,-331.2 734.7313,-239.2 853.8043,-239.2 853.8043,-331.2"/>
<text text-anchor="middle" x="794.2678" y="-314.6" font-family="Times,serif" font-size="14.00" fill="#000000">catu &lt;= 2.5</text>
<text text-anchor="middle" x="794.2678" y="-297.8" font-family="Times,serif" font-size="14.00" fill="#000000">gini = 0.475</text>
<text text-anchor="middle" x="794.2678" y="-281" font-family="Times,serif" font-size="14.00" fill="#000000">samples = 992</text>
<text text-anchor="middle" x="794.2678" y="-264.2" font-family="Times,serif" font-size="14.00" fill="#000000">value = [608, 384]</text>
<text text-anchor="middle" x="794.2678" y="-247.4" font-family="Times,serif" font-size="14.00" fill="#000000">class = Non-lethal</text>
</g>
<!-- 1&#45;&gt;9 -->
<g id="edge9" class="edge">
<title>1-&gt;9</title>
<path fill="none" stroke="#000000" d="M794.2678,-366.9891C794.2678,-358.7417 794.2678,-350.0661 794.2678,-341.5724"/>
<polygon fill="#000000" stroke="#000000" points="797.7679,-341.3431 794.2678,-331.3431 790.7679,-341.3431 797.7679,-341.3431"/>
</g>
<!-- 3 -->
<g id="node4" class="node">
<title>3</title>
<polygon fill="#399de5" fill-opacity="0.796078" stroke="#000000" points="260.3042,-203.2 134.2314,-203.2 134.2314,-111.2 260.3042,-111.2 260.3042,-203.2"/>
<text text-anchor="middle" x="197.2678" y="-186.6" font-family="Times,serif" font-size="14.00" fill="#000000">an_nais &lt;= 1.957</text>
<text text-anchor="middle" x="197.2678" y="-169.8" font-family="Times,serif" font-size="14.00" fill="#000000">gini = 0.281</text>
<text text-anchor="middle" x="197.2678" y="-153" font-family="Times,serif" font-size="14.00" fill="#000000">samples = 1346</text>
<text text-anchor="middle" x="197.2678" y="-136.2" font-family="Times,serif" font-size="14.00" fill="#000000">value = [228, 1118]</text>
<text text-anchor="middle" x="197.2678" y="-119.4" font-family="Times,serif" font-size="14.00" fill="#000000">class = Lethal</text>
</g>
<!-- 2&#45;&gt;3 -->
<g id="edge3" class="edge">
<title>2-&gt;3</title>
<path fill="none" stroke="#000000" d="M342.0138,-246.2744C319.0209,-232.125 292.8719,-216.0333 269.1845,-201.4564"/>
<polygon fill="#000000" stroke="#000000" points="270.9303,-198.4211 260.5793,-196.1609 267.2615,-204.3828 270.9303,-198.4211"/>
</g>
<!-- 6 -->
<g id="node7" class="node">
<title>6</title>
<polygon fill="#399de5" fill-opacity="0.423529" stroke="#000000" points="468.3042,-203.2 342.2314,-203.2 342.2314,-111.2 468.3042,-111.2 468.3042,-203.2"/>
<text text-anchor="middle" x="405.2678" y="-186.6" font-family="Times,serif" font-size="14.00" fill="#000000">circ &lt;= 1.5</text>
<text text-anchor="middle" x="405.2678" y="-169.8" font-family="Times,serif" font-size="14.00" fill="#000000">gini = 0.464</text>
<text text-anchor="middle" x="405.2678" y="-153" font-family="Times,serif" font-size="14.00" fill="#000000">samples = 1962</text>
<text text-anchor="middle" x="405.2678" y="-136.2" font-family="Times,serif" font-size="14.00" fill="#000000">value = [717, 1245]</text>
<text text-anchor="middle" x="405.2678" y="-119.4" font-family="Times,serif" font-size="14.00" fill="#000000">class = Lethal</text>
</g>
<!-- 2&#45;&gt;6 -->
<g id="edge6" class="edge">
<title>2-&gt;6</title>
<path fill="none" stroke="#000000" d="M405.2678,-238.9891C405.2678,-230.7417 405.2678,-222.0661 405.2678,-213.5724"/>
<polygon fill="#000000" stroke="#000000" points="408.7679,-213.3431 405.2678,-203.3431 401.7679,-213.3431 408.7679,-213.3431"/>
</g>
<!-- 4 -->
<g id="node5" class="node">
<title>4</title>
<polygon fill="#399de5" fill-opacity="0.831373" stroke="#000000" points="126.3042,-75.3003 .2314,-75.3003 .2314,.1003 126.3042,.1003 126.3042,-75.3003"/>
<text text-anchor="middle" x="63.2678" y="-58.6" font-family="Times,serif" font-size="14.00" fill="#000000">gini = 0.249</text>
<text text-anchor="middle" x="63.2678" y="-41.8" font-family="Times,serif" font-size="14.00" fill="#000000">samples = 1209</text>
<text text-anchor="middle" x="63.2678" y="-25" font-family="Times,serif" font-size="14.00" fill="#000000">value = [176, 1033]</text>
<text text-anchor="middle" x="63.2678" y="-8.2" font-family="Times,serif" font-size="14.00" fill="#000000">class = Lethal</text>
</g>
<!-- 3&#45;&gt;4 -->
<g id="edge4" class="edge">
<title>3-&gt;4</title>
<path fill="none" stroke="#000000" d="M145.4599,-110.9595C134.7925,-101.4385 123.5827,-91.4333 112.9912,-81.98"/>
<polygon fill="#000000" stroke="#000000" points="115.196,-79.2565 105.4048,-75.2088 110.5348,-84.4789 115.196,-79.2565"/>
</g>
<!-- 5 -->
<g id="node6" class="node">
<title>5</title>
<polygon fill="#399de5" fill-opacity="0.388235" stroke="#000000" points="249.8044,-75.3003 144.7312,-75.3003 144.7312,.1003 249.8044,.1003 249.8044,-75.3003"/>
<text text-anchor="middle" x="197.2678" y="-58.6" font-family="Times,serif" font-size="14.00" fill="#000000">gini = 0.471</text>
<text text-anchor="middle" x="197.2678" y="-41.8" font-family="Times,serif" font-size="14.00" fill="#000000">samples = 137</text>
<text text-anchor="middle" x="197.2678" y="-25" font-family="Times,serif" font-size="14.00" fill="#000000">value = [52, 85]</text>
<text text-anchor="middle" x="197.2678" y="-8.2" font-family="Times,serif" font-size="14.00" fill="#000000">class = Lethal</text>
</g>
<!-- 3&#45;&gt;5 -->
<g id="edge5" class="edge">
<title>3-&gt;5</title>
<path fill="none" stroke="#000000" d="M197.2678,-110.9595C197.2678,-102.5477 197.2678,-93.7581 197.2678,-85.3049"/>
<polygon fill="#000000" stroke="#000000" points="200.7679,-85.2088 197.2678,-75.2088 193.7679,-85.2089 200.7679,-85.2088"/>
</g>
<!-- 7 -->
<g id="node8" class="node">
<title>7</title>
<polygon fill="#e58139" fill-opacity="0.584314" stroke="#000000" points="386.2396,-75.3003 268.296,-75.3003 268.296,.1003 386.2396,.1003 386.2396,-75.3003"/>
<text text-anchor="middle" x="327.2678" y="-58.6" font-family="Times,serif" font-size="14.00" fill="#000000">gini = 0.415</text>
<text text-anchor="middle" x="327.2678" y="-41.8" font-family="Times,serif" font-size="14.00" fill="#000000">samples = 242</text>
<text text-anchor="middle" x="327.2678" y="-25" font-family="Times,serif" font-size="14.00" fill="#000000">value = [171, 71]</text>
<text text-anchor="middle" x="327.2678" y="-8.2" font-family="Times,serif" font-size="14.00" fill="#000000">class = Non-lethal</text>
</g>
<!-- 6&#45;&gt;7 -->
<g id="edge7" class="edge">
<title>6-&gt;7</title>
<path fill="none" stroke="#000000" d="M375.111,-110.9595C369.2633,-101.9931 363.1356,-92.5973 357.2922,-83.6374"/>
<polygon fill="#000000" stroke="#000000" points="360.1897,-81.673 351.7953,-75.2088 354.3264,-85.4969 360.1897,-81.673"/>
</g>
<!-- 8 -->
<g id="node9" class="node">
<title>8</title>
<polygon fill="#399de5" fill-opacity="0.533333" stroke="#000000" points="530.3042,-75.3003 404.2314,-75.3003 404.2314,.1003 530.3042,.1003 530.3042,-75.3003"/>
<text text-anchor="middle" x="467.2678" y="-58.6" font-family="Times,serif" font-size="14.00" fill="#000000">gini = 0.433</text>
<text text-anchor="middle" x="467.2678" y="-41.8" font-family="Times,serif" font-size="14.00" fill="#000000">samples = 1720</text>
<text text-anchor="middle" x="467.2678" y="-25" font-family="Times,serif" font-size="14.00" fill="#000000">value = [546, 1174]</text>
<text text-anchor="middle" x="467.2678" y="-8.2" font-family="Times,serif" font-size="14.00" fill="#000000">class = Lethal</text>
</g>
<!-- 6&#45;&gt;8 -->
<g id="edge8" class="edge">
<title>6-&gt;8</title>
<path fill="none" stroke="#000000" d="M429.2386,-110.9595C433.7909,-102.178 438.5567,-92.9846 443.1146,-84.1922"/>
<polygon fill="#000000" stroke="#000000" points="446.2765,-85.6977 447.7716,-75.2088 440.0619,-82.476 446.2765,-85.6977"/>
</g>
<!-- 10 -->
<g id="node11" class="node">
<title>10</title>
<polygon fill="#e58139" fill-opacity="0.462745" stroke="#000000" points="790.8043,-203.2 671.7313,-203.2 671.7313,-111.2 790.8043,-111.2 790.8043,-203.2"/>
<text text-anchor="middle" x="731.2678" y="-186.6" font-family="Times,serif" font-size="14.00" fill="#000000">an_nais &lt;= 1.686</text>
<text text-anchor="middle" x="731.2678" y="-169.8" font-family="Times,serif" font-size="14.00" fill="#000000">gini = 0.454</text>
<text text-anchor="middle" x="731.2678" y="-153" font-family="Times,serif" font-size="14.00" fill="#000000">samples = 932</text>
<text text-anchor="middle" x="731.2678" y="-136.2" font-family="Times,serif" font-size="14.00" fill="#000000">value = [607, 325]</text>
<text text-anchor="middle" x="731.2678" y="-119.4" font-family="Times,serif" font-size="14.00" fill="#000000">class = Non-lethal</text>
</g>
<!-- 9&#45;&gt;10 -->
<g id="edge10" class="edge">
<title>9-&gt;10</title>
<path fill="none" stroke="#000000" d="M771.5234,-238.9891C767.2857,-230.3791 762.8183,-221.3026 758.4629,-212.4535"/>
<polygon fill="#000000" stroke="#000000" points="761.5351,-210.7696 753.9789,-203.3431 755.2546,-213.8609 761.5351,-210.7696"/>
</g>
<!-- 13 -->
<g id="node14" class="node">
<title>13</title>
<polygon fill="#399de5" fill-opacity="0.984314" stroke="#000000" points="907.3045,-203.2 809.2311,-203.2 809.2311,-111.2 907.3045,-111.2 907.3045,-203.2"/>
<text text-anchor="middle" x="858.2678" y="-186.6" font-family="Times,serif" font-size="14.00" fill="#000000">lum &lt;= 1.5</text>
<text text-anchor="middle" x="858.2678" y="-169.8" font-family="Times,serif" font-size="14.00" fill="#000000">gini = 0.033</text>
<text text-anchor="middle" x="858.2678" y="-153" font-family="Times,serif" font-size="14.00" fill="#000000">samples = 60</text>
<text text-anchor="middle" x="858.2678" y="-136.2" font-family="Times,serif" font-size="14.00" fill="#000000">value = [1, 59]</text>
<text text-anchor="middle" x="858.2678" y="-119.4" font-family="Times,serif" font-size="14.00" fill="#000000">class = Lethal</text>
</g>
<!-- 9&#45;&gt;13 -->
<g id="edge13" class="edge">
<title>9-&gt;13</title>
<path fill="none" stroke="#000000" d="M817.3733,-238.9891C821.6782,-230.3791 826.2165,-221.3026 830.6411,-212.4535"/>
<polygon fill="#000000" stroke="#000000" points="833.8546,-213.8527 835.1962,-203.3431 827.5936,-210.7221 833.8546,-213.8527"/>
</g>
<!-- 11 -->
<g id="node12" class="node">
<title>11</title>
<polygon fill="#399de5" fill-opacity="0.427451" stroke="#000000" points="653.8044,-75.3003 548.7312,-75.3003 548.7312,.1003 653.8044,.1003 653.8044,-75.3003"/>
<text text-anchor="middle" x="601.2678" y="-58.6" font-family="Times,serif" font-size="14.00" fill="#000000">gini = 0.463</text>
<text text-anchor="middle" x="601.2678" y="-41.8" font-family="Times,serif" font-size="14.00" fill="#000000">samples = 132</text>
<text text-anchor="middle" x="601.2678" y="-25" font-family="Times,serif" font-size="14.00" fill="#000000">value = [48, 84]</text>
<text text-anchor="middle" x="601.2678" y="-8.2" font-family="Times,serif" font-size="14.00" fill="#000000">class = Lethal</text>
</g>
<!-- 10&#45;&gt;11 -->
<g id="edge11" class="edge">
<title>10-&gt;11</title>
<path fill="none" stroke="#000000" d="M681.0064,-110.9595C670.6574,-101.4385 659.7823,-91.4333 649.5069,-81.98"/>
<polygon fill="#000000" stroke="#000000" points="651.876,-79.4037 642.147,-75.2088 647.1366,-84.5552 651.876,-79.4037"/>
</g>
<!-- 12 -->
<g id="node13" class="node">
<title>12</title>
<polygon fill="#e58139" fill-opacity="0.568627" stroke="#000000" points="791.8043,-75.3003 672.7313,-75.3003 672.7313,.1003 791.8043,.1003 791.8043,-75.3003"/>
<text text-anchor="middle" x="732.2678" y="-58.6" font-family="Times,serif" font-size="14.00" fill="#000000">gini = 0.421</text>
<text text-anchor="middle" x="732.2678" y="-41.8" font-family="Times,serif" font-size="14.00" fill="#000000">samples = 800</text>
<text text-anchor="middle" x="732.2678" y="-25" font-family="Times,serif" font-size="14.00" fill="#000000">value = [559, 241]</text>
<text text-anchor="middle" x="732.2678" y="-8.2" font-family="Times,serif" font-size="14.00" fill="#000000">class = Non-lethal</text>
</g>
<!-- 10&#45;&gt;12 -->
<g id="edge12" class="edge">
<title>10-&gt;12</title>
<path fill="none" stroke="#000000" d="M731.6544,-110.9595C731.7248,-102.5477 731.7983,-93.7581 731.8689,-85.3049"/>
<polygon fill="#000000" stroke="#000000" points="735.3695,-85.2378 731.9533,-75.2088 728.3698,-85.1792 735.3695,-85.2378"/>
</g>
<!-- 14 -->
<g id="node15" class="node">
<title>14</title>
<polygon fill="#399de5" fill-opacity="0.666667" stroke="#000000" points="904.1345,-75.3003 810.4011,-75.3003 810.4011,.1003 904.1345,.1003 904.1345,-75.3003"/>
<text text-anchor="middle" x="857.2678" y="-58.6" font-family="Times,serif" font-size="14.00" fill="#000000">gini = 0.375</text>
<text text-anchor="middle" x="857.2678" y="-41.8" font-family="Times,serif" font-size="14.00" fill="#000000">samples = 4</text>
<text text-anchor="middle" x="857.2678" y="-25" font-family="Times,serif" font-size="14.00" fill="#000000">value = [1, 3]</text>
<text text-anchor="middle" x="857.2678" y="-8.2" font-family="Times,serif" font-size="14.00" fill="#000000">class = Lethal</text>
</g>
<!-- 13&#45;&gt;14 -->
<g id="edge14" class="edge">
<title>13-&gt;14</title>
<path fill="none" stroke="#000000" d="M857.8812,-110.9595C857.8108,-102.5477 857.7373,-93.7581 857.6667,-85.3049"/>
<polygon fill="#000000" stroke="#000000" points="861.1658,-85.1792 857.5823,-75.2088 854.1661,-85.2378 861.1658,-85.1792"/>
</g>
<!-- 15 -->
<g id="node16" class="node">
<title>15</title>
<polygon fill="#399de5" stroke="#000000" points="1020.3045,-75.3003 922.2311,-75.3003 922.2311,.1003 1020.3045,.1003 1020.3045,-75.3003"/>
<text text-anchor="middle" x="971.2678" y="-58.6" font-family="Times,serif" font-size="14.00" fill="#000000">gini = 0.0</text>
<text text-anchor="middle" x="971.2678" y="-41.8" font-family="Times,serif" font-size="14.00" fill="#000000">samples = 56</text>
<text text-anchor="middle" x="971.2678" y="-25" font-family="Times,serif" font-size="14.00" fill="#000000">value = [0, 56]</text>
<text text-anchor="middle" x="971.2678" y="-8.2" font-family="Times,serif" font-size="14.00" fill="#000000">class = Lethal</text>
</g>
<!-- 13&#45;&gt;15 -->
<g id="edge15" class="edge">
<title>13-&gt;15</title>
<path fill="none" stroke="#000000" d="M901.9566,-110.9595C910.7775,-101.6233 920.0383,-91.8217 928.816,-82.5313"/>
<polygon fill="#000000" stroke="#000000" points="931.4108,-84.8813 935.7344,-75.2088 926.3226,-80.0739 931.4108,-84.8813"/>
</g>
<!-- 17 -->
<g id="node18" class="node">
<title>17</title>
<polygon fill="#e58139" fill-opacity="0.172549" stroke="#000000" points="1352.8043,-331.2 1233.7313,-331.2 1233.7313,-239.2 1352.8043,-239.2 1352.8043,-331.2"/>
<text text-anchor="middle" x="1293.2678" y="-314.6" font-family="Times,serif" font-size="14.00" fill="#000000">an_nais &lt;= 1.648</text>
<text text-anchor="middle" x="1293.2678" y="-297.8" font-family="Times,serif" font-size="14.00" fill="#000000">gini = 0.496</text>
<text text-anchor="middle" x="1293.2678" y="-281" font-family="Times,serif" font-size="14.00" fill="#000000">samples = 1686</text>
<text text-anchor="middle" x="1293.2678" y="-264.2" font-family="Times,serif" font-size="14.00" fill="#000000">value = [922, 764]</text>
<text text-anchor="middle" x="1293.2678" y="-247.4" font-family="Times,serif" font-size="14.00" fill="#000000">class = Non-lethal</text>
</g>
<!-- 16&#45;&gt;17 -->
<g id="edge17" class="edge">
<title>16-&gt;17</title>
<path fill="none" stroke="#000000" d="M1293.2678,-366.9891C1293.2678,-358.7417 1293.2678,-350.0661 1293.2678,-341.5724"/>
<polygon fill="#000000" stroke="#000000" points="1296.7679,-341.3431 1293.2678,-331.3431 1289.7679,-341.3431 1296.7679,-341.3431"/>
</g>
<!-- 24 -->
<g id="node25" class="node">
<title>24</title>
<polygon fill="#e58139" fill-opacity="0.831373" stroke="#000000" points="1758.3042,-331.2 1632.2314,-331.2 1632.2314,-239.2 1758.3042,-239.2 1758.3042,-331.2"/>
<text text-anchor="middle" x="1695.2678" y="-314.6" font-family="Times,serif" font-size="14.00" fill="#000000">obs &lt;= 1.5</text>
<text text-anchor="middle" x="1695.2678" y="-297.8" font-family="Times,serif" font-size="14.00" fill="#000000">gini = 0.246</text>
<text text-anchor="middle" x="1695.2678" y="-281" font-family="Times,serif" font-size="14.00" fill="#000000">samples = 1504</text>
<text text-anchor="middle" x="1695.2678" y="-264.2" font-family="Times,serif" font-size="14.00" fill="#000000">value = [1288, 216]</text>
<text text-anchor="middle" x="1695.2678" y="-247.4" font-family="Times,serif" font-size="14.00" fill="#000000">class = Non-lethal</text>
</g>
<!-- 16&#45;&gt;24 -->
<g id="edge24" class="edge">
<title>16-&gt;24</title>
<path fill="none" stroke="#000000" d="M1356.5225,-393.0592C1428.5757,-370.1169 1546.1313,-332.6863 1622.0803,-308.5035"/>
<polygon fill="#000000" stroke="#000000" points="1623.584,-311.6979 1632.0507,-305.3288 1621.4601,-305.0279 1623.584,-311.6979"/>
</g>
<!-- 18 -->
<g id="node19" class="node">
<title>18</title>
<polygon fill="#399de5" fill-opacity="0.666667" stroke="#000000" points="1282.8214,-203.2 1169.7142,-203.2 1169.7142,-111.2 1282.8214,-111.2 1282.8214,-203.2"/>
<text text-anchor="middle" x="1226.2678" y="-186.6" font-family="Times,serif" font-size="14.00" fill="#000000">an_nais &lt;= 1.439</text>
<text text-anchor="middle" x="1226.2678" y="-169.8" font-family="Times,serif" font-size="14.00" fill="#000000">gini = 0.375</text>
<text text-anchor="middle" x="1226.2678" y="-153" font-family="Times,serif" font-size="14.00" fill="#000000">samples = 340</text>
<text text-anchor="middle" x="1226.2678" y="-136.2" font-family="Times,serif" font-size="14.00" fill="#000000">value = [85, 255]</text>
<text text-anchor="middle" x="1226.2678" y="-119.4" font-family="Times,serif" font-size="14.00" fill="#000000">class = Lethal</text>
</g>
<!-- 17&#45;&gt;18 -->
<g id="edge18" class="edge">
<title>17-&gt;18</title>
<path fill="none" stroke="#000000" d="M1269.0793,-238.9891C1264.5725,-230.3791 1259.8215,-221.3026 1255.1895,-212.4535"/>
<polygon fill="#000000" stroke="#000000" points="1258.1593,-210.5796 1250.4208,-203.3431 1251.9575,-213.8259 1258.1593,-210.5796"/>
</g>
<!-- 21 -->
<g id="node22" class="node">
<title>21</title>
<polygon fill="#e58139" fill-opacity="0.392157" stroke="#000000" points="1419.8043,-203.2 1300.7313,-203.2 1300.7313,-111.2 1419.8043,-111.2 1419.8043,-203.2"/>
<text text-anchor="middle" x="1360.2678" y="-186.6" font-family="Times,serif" font-size="14.00" fill="#000000">obs &lt;= 5.5</text>
<text text-anchor="middle" x="1360.2678" y="-169.8" font-family="Times,serif" font-size="14.00" fill="#000000">gini = 0.47</text>
<text text-anchor="middle" x="1360.2678" y="-153" font-family="Times,serif" font-size="14.00" fill="#000000">samples = 1346</text>
<text text-anchor="middle" x="1360.2678" y="-136.2" font-family="Times,serif" font-size="14.00" fill="#000000">value = [837, 509]</text>
<text text-anchor="middle" x="1360.2678" y="-119.4" font-family="Times,serif" font-size="14.00" fill="#000000">class = Non-lethal</text>
</g>
<!-- 17&#45;&gt;21 -->
<g id="edge21" class="edge">
<title>17-&gt;21</title>
<path fill="none" stroke="#000000" d="M1317.4563,-238.9891C1321.9631,-230.3791 1326.7141,-221.3026 1331.3461,-212.4535"/>
<polygon fill="#000000" stroke="#000000" points="1334.5781,-213.8259 1336.1148,-203.3431 1328.3763,-210.5796 1334.5781,-213.8259"/>
</g>
<!-- 19 -->
<g id="node20" class="node">
<title>19</title>
<polygon fill="#399de5" fill-opacity="0.866667" stroke="#000000" points="1151.3044,-75.3003 1039.2312,-75.3003 1039.2312,.1003 1151.3044,.1003 1151.3044,-75.3003"/>
<text text-anchor="middle" x="1095.2678" y="-58.6" font-family="Times,serif" font-size="14.00" fill="#000000">gini = 0.206</text>
<text text-anchor="middle" x="1095.2678" y="-41.8" font-family="Times,serif" font-size="14.00" fill="#000000">samples = 129</text>
<text text-anchor="middle" x="1095.2678" y="-25" font-family="Times,serif" font-size="14.00" fill="#000000">value = [15, 114]</text>
<text text-anchor="middle" x="1095.2678" y="-8.2" font-family="Times,serif" font-size="14.00" fill="#000000">class = Lethal</text>
</g>
<!-- 18&#45;&gt;19 -->
<g id="edge19" class="edge">
<title>18-&gt;19</title>
<path fill="none" stroke="#000000" d="M1175.6198,-110.9595C1165.1912,-101.4385 1154.2324,-91.4333 1143.878,-81.98"/>
<polygon fill="#000000" stroke="#000000" points="1146.2064,-79.3665 1136.4614,-75.2088 1141.4867,-84.5361 1146.2064,-79.3665"/>
</g>
<!-- 20 -->
<g id="node21" class="node">
<title>20</title>
<polygon fill="#399de5" fill-opacity="0.501961" stroke="#000000" points="1282.3044,-75.3003 1170.2312,-75.3003 1170.2312,.1003 1282.3044,.1003 1282.3044,-75.3003"/>
<text text-anchor="middle" x="1226.2678" y="-58.6" font-family="Times,serif" font-size="14.00" fill="#000000">gini = 0.443</text>
<text text-anchor="middle" x="1226.2678" y="-41.8" font-family="Times,serif" font-size="14.00" fill="#000000">samples = 211</text>
<text text-anchor="middle" x="1226.2678" y="-25" font-family="Times,serif" font-size="14.00" fill="#000000">value = [70, 141]</text>
<text text-anchor="middle" x="1226.2678" y="-8.2" font-family="Times,serif" font-size="14.00" fill="#000000">class = Lethal</text>
</g>
<!-- 18&#45;&gt;20 -->
<g id="edge20" class="edge">
<title>18-&gt;20</title>
<path fill="none" stroke="#000000" d="M1226.2678,-110.9595C1226.2678,-102.5477 1226.2678,-93.7581 1226.2678,-85.3049"/>
<polygon fill="#000000" stroke="#000000" points="1229.7679,-85.2088 1226.2678,-75.2088 1222.7679,-85.2089 1229.7679,-85.2088"/>
</g>
<!-- 22 -->
<g id="node23" class="node">
<title>22</title>
<polygon fill="#e58139" fill-opacity="0.494118" stroke="#000000" points="1419.8043,-75.3003 1300.7313,-75.3003 1300.7313,.1003 1419.8043,.1003 1419.8043,-75.3003"/>
<text text-anchor="middle" x="1360.2678" y="-58.6" font-family="Times,serif" font-size="14.00" fill="#000000">gini = 0.446</text>
<text text-anchor="middle" x="1360.2678" y="-41.8" font-family="Times,serif" font-size="14.00" fill="#000000">samples = 1213</text>
<text text-anchor="middle" x="1360.2678" y="-25" font-family="Times,serif" font-size="14.00" fill="#000000">value = [806, 407]</text>
<text text-anchor="middle" x="1360.2678" y="-8.2" font-family="Times,serif" font-size="14.00" fill="#000000">class = Non-lethal</text>
</g>
<!-- 21&#45;&gt;22 -->
<g id="edge22" class="edge">
<title>21-&gt;22</title>
<path fill="none" stroke="#000000" d="M1360.2678,-110.9595C1360.2678,-102.5477 1360.2678,-93.7581 1360.2678,-85.3049"/>
<polygon fill="#000000" stroke="#000000" points="1363.7679,-85.2088 1360.2678,-75.2088 1356.7679,-85.2089 1363.7679,-85.2088"/>
</g>
<!-- 23 -->
<g id="node24" class="node">
<title>23</title>
<polygon fill="#399de5" fill-opacity="0.694118" stroke="#000000" points="1550.3044,-75.3003 1438.2312,-75.3003 1438.2312,.1003 1550.3044,.1003 1550.3044,-75.3003"/>
<text text-anchor="middle" x="1494.2678" y="-58.6" font-family="Times,serif" font-size="14.00" fill="#000000">gini = 0.358</text>
<text text-anchor="middle" x="1494.2678" y="-41.8" font-family="Times,serif" font-size="14.00" fill="#000000">samples = 133</text>
<text text-anchor="middle" x="1494.2678" y="-25" font-family="Times,serif" font-size="14.00" fill="#000000">value = [31, 102]</text>
<text text-anchor="middle" x="1494.2678" y="-8.2" font-family="Times,serif" font-size="14.00" fill="#000000">class = Lethal</text>
</g>
<!-- 21&#45;&gt;23 -->
<g id="edge23" class="edge">
<title>21-&gt;23</title>
<path fill="none" stroke="#000000" d="M1412.0757,-110.9595C1422.7431,-101.4385 1433.9529,-91.4333 1444.5444,-81.98"/>
<polygon fill="#000000" stroke="#000000" points="1447.0008,-84.4789 1452.1308,-75.2088 1442.3396,-79.2565 1447.0008,-84.4789"/>
</g>
<!-- 25 -->
<g id="node26" class="node">
<title>25</title>
<polygon fill="#e58139" fill-opacity="0.909804" stroke="#000000" points="1758.3042,-203.2 1632.2314,-203.2 1632.2314,-111.2 1758.3042,-111.2 1758.3042,-203.2"/>
<text text-anchor="middle" x="1695.2678" y="-186.6" font-family="Times,serif" font-size="14.00" fill="#000000">an_nais &lt;= 1.585</text>
<text text-anchor="middle" x="1695.2678" y="-169.8" font-family="Times,serif" font-size="14.00" fill="#000000">gini = 0.154</text>
<text text-anchor="middle" x="1695.2678" y="-153" font-family="Times,serif" font-size="14.00" fill="#000000">samples = 1328</text>
<text text-anchor="middle" x="1695.2678" y="-136.2" font-family="Times,serif" font-size="14.00" fill="#000000">value = [1216, 112]</text>
<text text-anchor="middle" x="1695.2678" y="-119.4" font-family="Times,serif" font-size="14.00" fill="#000000">class = Non-lethal</text>
</g>
<!-- 24&#45;&gt;25 -->
<g id="edge25" class="edge">
<title>24-&gt;25</title>
<path fill="none" stroke="#000000" d="M1695.2678,-238.9891C1695.2678,-230.7417 1695.2678,-222.0661 1695.2678,-213.5724"/>
<polygon fill="#000000" stroke="#000000" points="1698.7679,-213.3431 1695.2678,-203.3431 1691.7679,-213.3431 1698.7679,-213.3431"/>
</g>
<!-- 28 -->
<g id="node29" class="node">
<title>28</title>
<polygon fill="#399de5" fill-opacity="0.305882" stroke="#000000" points="1957.3044,-203.2 1845.2312,-203.2 1845.2312,-111.2 1957.3044,-111.2 1957.3044,-203.2"/>
<text text-anchor="middle" x="1901.2678" y="-186.6" font-family="Times,serif" font-size="14.00" fill="#000000">col &lt;= 5.5</text>
<text text-anchor="middle" x="1901.2678" y="-169.8" font-family="Times,serif" font-size="14.00" fill="#000000">gini = 0.483</text>
<text text-anchor="middle" x="1901.2678" y="-153" font-family="Times,serif" font-size="14.00" fill="#000000">samples = 176</text>
<text text-anchor="middle" x="1901.2678" y="-136.2" font-family="Times,serif" font-size="14.00" fill="#000000">value = [72, 104]</text>
<text text-anchor="middle" x="1901.2678" y="-119.4" font-family="Times,serif" font-size="14.00" fill="#000000">class = Lethal</text>
</g>
<!-- 24&#45;&gt;28 -->
<g id="edge28" class="edge">
<title>24-&gt;28</title>
<path fill="none" stroke="#000000" d="M1758.4746,-245.9259C1783.231,-230.5432 1811.6118,-212.9086 1836.5156,-197.4344"/>
<polygon fill="#000000" stroke="#000000" points="1838.5211,-200.309 1845.1677,-192.0583 1834.8266,-194.3632 1838.5211,-200.309"/>
</g>
<!-- 26 -->
<g id="node27" class="node">
<title>26</title>
<polygon fill="#e58139" fill-opacity="0.419608" stroke="#000000" points="1686.2396,-75.3003 1568.296,-75.3003 1568.296,.1003 1686.2396,.1003 1686.2396,-75.3003"/>
<text text-anchor="middle" x="1627.2678" y="-58.6" font-family="Times,serif" font-size="14.00" fill="#000000">gini = 0.465</text>
<text text-anchor="middle" x="1627.2678" y="-41.8" font-family="Times,serif" font-size="14.00" fill="#000000">samples = 128</text>
<text text-anchor="middle" x="1627.2678" y="-25" font-family="Times,serif" font-size="14.00" fill="#000000">value = [81, 47]</text>
<text text-anchor="middle" x="1627.2678" y="-8.2" font-family="Times,serif" font-size="14.00" fill="#000000">class = Non-lethal</text>
</g>
<!-- 25&#45;&gt;26 -->
<g id="edge26" class="edge">
<title>25-&gt;26</title>
<path fill="none" stroke="#000000" d="M1668.9772,-110.9595C1663.9318,-102.0855 1658.6473,-92.791 1653.6006,-83.9147"/>
<polygon fill="#000000" stroke="#000000" points="1656.636,-82.1721 1648.6507,-75.2088 1650.5508,-85.6319 1656.636,-82.1721"/>
</g>
<!-- 27 -->
<g id="node28" class="node">
<title>27</title>
<polygon fill="#e58139" fill-opacity="0.941176" stroke="#000000" points="1823.8043,-75.3003 1704.7313,-75.3003 1704.7313,.1003 1823.8043,.1003 1823.8043,-75.3003"/>
<text text-anchor="middle" x="1764.2678" y="-58.6" font-family="Times,serif" font-size="14.00" fill="#000000">gini = 0.102</text>
<text text-anchor="middle" x="1764.2678" y="-41.8" font-family="Times,serif" font-size="14.00" fill="#000000">samples = 1200</text>
<text text-anchor="middle" x="1764.2678" y="-25" font-family="Times,serif" font-size="14.00" fill="#000000">value = [1135, 65]</text>
<text text-anchor="middle" x="1764.2678" y="-8.2" font-family="Times,serif" font-size="14.00" fill="#000000">class = Non-lethal</text>
</g>
<!-- 25&#45;&gt;27 -->
<g id="edge27" class="edge">
<title>25-&gt;27</title>
<path fill="none" stroke="#000000" d="M1721.945,-110.9595C1727.0646,-102.0855 1732.4268,-92.791 1737.5478,-83.9147"/>
<polygon fill="#000000" stroke="#000000" points="1740.6048,-85.6197 1742.5704,-75.2088 1734.5415,-82.1216 1740.6048,-85.6197"/>
</g>
<!-- 29 -->
<g id="node30" class="node">
<title>29</title>
<polygon fill="#e58139" fill-opacity="0.741176" stroke="#000000" points="1960.2396,-75.3003 1842.296,-75.3003 1842.296,.1003 1960.2396,.1003 1960.2396,-75.3003"/>
<text text-anchor="middle" x="1901.2678" y="-58.6" font-family="Times,serif" font-size="14.00" fill="#000000">gini = 0.325</text>
<text text-anchor="middle" x="1901.2678" y="-41.8" font-family="Times,serif" font-size="14.00" fill="#000000">samples = 44</text>
<text text-anchor="middle" x="1901.2678" y="-25" font-family="Times,serif" font-size="14.00" fill="#000000">value = [35, 9]</text>
<text text-anchor="middle" x="1901.2678" y="-8.2" font-family="Times,serif" font-size="14.00" fill="#000000">class = Non-lethal</text>
</g>
<!-- 28&#45;&gt;29 -->
<g id="edge29" class="edge">
<title>28-&gt;29</title>
<path fill="none" stroke="#000000" d="M1901.2678,-110.9595C1901.2678,-102.5477 1901.2678,-93.7581 1901.2678,-85.3049"/>
<polygon fill="#000000" stroke="#000000" points="1904.7679,-85.2088 1901.2678,-75.2088 1897.7679,-85.2089 1904.7679,-85.2088"/>
</g>
<!-- 30 -->
<g id="node31" class="node">
<title>30</title>
<polygon fill="#399de5" fill-opacity="0.611765" stroke="#000000" points="2083.8044,-75.3003 1978.7312,-75.3003 1978.7312,.1003 2083.8044,.1003 2083.8044,-75.3003"/>
<text text-anchor="middle" x="2031.2678" y="-58.6" font-family="Times,serif" font-size="14.00" fill="#000000">gini = 0.403</text>
<text text-anchor="middle" x="2031.2678" y="-41.8" font-family="Times,serif" font-size="14.00" fill="#000000">samples = 132</text>
<text text-anchor="middle" x="2031.2678" y="-25" font-family="Times,serif" font-size="14.00" fill="#000000">value = [37, 95]</text>
<text text-anchor="middle" x="2031.2678" y="-8.2" font-family="Times,serif" font-size="14.00" fill="#000000">class = Lethal</text>
</g>
<!-- 28&#45;&gt;30 -->
<g id="edge30" class="edge">
<title>28-&gt;30</title>
<path fill="none" stroke="#000000" d="M1951.5292,-110.9595C1961.8782,-101.4385 1972.7533,-91.4333 1983.0287,-81.98"/>
<polygon fill="#000000" stroke="#000000" points="1985.399,-84.5552 1990.3886,-75.2088 1980.6596,-79.4037 1985.399,-84.5552"/>
</g>
</g>
</svg>